<svg xmlns="http://www.w3.org/2000/svg" viewBox="0 0 800 800" role="img" aria-labelledby="title desc">
  <title id="title">Product placeholder</title>
  <desc id="desc">Minimal placeholder illustration for products without images.</desc>
  <rect width="800" height="800" fill="#f8f8f6"/>
  <circle cx="388" cy="214" r="31" fill="#d7d7df"/>
  <path d="M208 450c0-100 80-182 180-184h26c98 2 177 84 177 184H382c6-76 43-141 106-184h-42c-88 18-154 91-168 184Z" fill="#d7d7df"/>
  <path d="M262 554c16-20 42-18 70 3 29 22 64 31 105 29 38-2 73 2 104 12 30 9 49 28 57 56 3 14 1 26-7 36-10 12-24 18-42 18H382c-38 0-71-8-100-26-15-10-33-22-55-34-19-11-25-36-11-56 12-14 28-25 46-38Z" fill="#d7d7df"/>
  <path d="M505 569c26 0 45 5 58 15 13 10 23 28 29 53l5 20-44 10c-8-27-19-44-34-52-10-5-25-7-46-7l32-39Z" fill="#d7d7df"/>
</svg>
